HIERARCHY
ROOT Hips
{
	OFFSET 55.310501 45.591206 43.872097
	CHANNELS 6 Xposition Yposition Zposition Zrotation Xrotation Yrotation
	JOINT Chest
	{
		OFFSET -0.153500 1.163101 7.852402
		CHANNELS 6 Xposition Yposition Zposition Zrotation Xrotation Yrotation
		JOINT Chest2
		{
			OFFSET 0.000000 0.000000 3.343300
			CHANNELS 6 Xposition Yposition Zposition Zrotation Xrotation Yrotation
			JOINT Neck
			{
				OFFSET 0.000000 0.000000 7.785500
				CHANNELS 6 Xposition Yposition Zposition Zrotation Xrotation Yrotation
				JOINT Head
				{
					OFFSET 0.000000 0.000000 2.173901
					CHANNELS 6 Xposition Yposition Zposition Zrotation Xrotation Yrotation
					End Site
					{
						OFFSET 0.000000 0.000000 10.528198
					}
				}
			}
			JOINT LeftCollar
			{
				OFFSET 2.676300 -1.652401 4.938301
				CHANNELS 6 Xposition Yposition Zposition Zrotation Xrotation Yrotation
				JOINT LeftShoulder
				{
					OFFSET 4.299000 0.000000 0.000000
					CHANNELS 6 Xposition Yposition Zposition Zrotation Xrotation Yrotation
					JOINT LeftElbow
					{
						OFFSET 0.000000 0.000000 -10.245102
						CHANNELS 6 Xposition Yposition Zposition Zrotation Xrotation Yrotation
						JOINT LeftWrist
						{
							OFFSET 0.000000 0.000000 -12.703300
							CHANNELS 6 Xposition Yposition Zposition Zrotation Xrotation Yrotation
							End Site
							{
								OFFSET 0.000000 0.000000 -2.173901
							}
						}
					}
				}
			}
			JOINT RightCollar
			{
				OFFSET -2.534599 -1.686401 5.195000
				CHANNELS 6 Xposition Yposition Zposition Zrotation Xrotation Yrotation
				JOINT RightShoulder
				{
					OFFSET -4.144100 0.000000 0.000000
					CHANNELS 6 Xposition Yposition Zposition Zrotation Xrotation Yrotation
					JOINT RightElbow
					{
						OFFSET 0.000000 0.000000 -10.116501
						CHANNELS 6 Xposition Yposition Zposition Zrotation Xrotation Yrotation
						JOINT RightWrist
						{
							OFFSET 0.000000 0.000000 -12.937801
							CHANNELS 6 Xposition Yposition Zposition Zrotation Xrotation Yrotation
							End Site
							{
								OFFSET 0.000000 0.000000 -2.173901
							}
						}
					}
				}
			}
		}
	}
	JOINT LeftHip
	{
		OFFSET 2.175598 0.064499 -2.662899
		CHANNELS 6 Xposition Yposition Zposition Zrotation Xrotation Yrotation
		JOINT LeftKnee
		{
			OFFSET 0.000000 -0.000004 -18.585800
			CHANNELS 6 Xposition Yposition Zposition Zrotation Xrotation Yrotation
			JOINT LeftAnkle
			{
				OFFSET 0.000000 0.000000 -18.979500
				CHANNELS 6 Xposition Yposition Zposition Zrotation Xrotation Yrotation
				End Site
				{
					OFFSET 0.000000 -9.264000 0.000000
				}
			}
		}
	}
	JOINT RightHip
	{
		OFFSET -2.092400 -0.058102 -2.581200
		CHANNELS 6 Xposition Yposition Zposition Zrotation Xrotation Yrotation
		JOINT RightKnee
		{
			OFFSET 0.000000 -0.000004 -18.665001
			CHANNELS 6 Xposition Yposition Zposition Zrotation Xrotation Yrotation
			JOINT RightAnkle
			{
				OFFSET 0.000000 0.000000 -18.566601
				CHANNELS 6 Xposition Yposition Zposition Zrotation Xrotation Yrotation
				End Site
				{
					OFFSET 0.000000 -8.497601 0.000000
				}
			}
		}
	}
}
MOTION
Frames: 6
Frame Time: 0.041667
36.006100 33.604103 42.380692 359.932610 -1.052040 -3.720903 -0.153494 1.163109 7.852410 -0.715210 2.799538 7.997980 0.000013 0.000002 3.343303 2.451212 -3.810971 0.276870 -0.000003 0.000003 7.785506 6.401263 -0.023723 -8.423680 -0.000001 0.000004 2.173910 1.113591 -2.348632 1.226251 2.676296 -1.652399 4.938305 -7.887018 3.084674 5.589684 4.299003 -0.000001 0.000000 -55.421600 -6.796064 -73.541480 -0.000004 0.000000 -10.245107 185.833191 250.740069 204.235934 -0.000004 -0.000001 -12.703293 670.570487 160.789224 256.880409 -2.534598 -1.686402 5.194998 7.579639 5.395871 2.051376 -4.144102 -0.000004 -0.000011 70.271848 -21.616673 146.730358 -0.000002 0.000001 -10.116505 -82.292011 -17.006672 -34.683660 -0.000003 -0.000004 -12.937798 -300.811776 -383.716968 24.609701 2.175599 0.064502 -2.662894 -347.978604 -16.729874 4.112685 0.000004 -0.000005 -18.585798 141.003340 -221.578672 -142.516268 -0.000012 -0.000002 -18.979513 395.810910 -6.365267 -84.390218 -2.092400 -0.058097 -2.581194 277.049330 -42.517644 -29.729860 0.000007 -0.000008 -18.665005 -967.581427 38.209878 -129.987202 -0.000002 -0.000003 -18.566610 704.119011 36.982800 -63.581514
36.007095 33.588799 42.361694 359.934222 -1.033808 -3.730975 -0.153500 1.163104 7.852407 -0.721975 2.815443 8.017780 0.000003 0.000006 3.343301 2.352408 -3.839851 0.268167 0.000000 -0.000003 7.785510 6.427153 -0.002592 -8.378132 -0.000003 0.000003 2.173908 1.124518 -2.397738 1.172364 2.676295 -1.652391 4.938309 -7.801213 3.071410 5.664656 4.299011 0.000002 -0.000008 -55.459456 -6.806505 -73.548877 0.000003 0.000006 -10.245101 185.526243 250.767226 204.090806 0.000002 -0.000005 -12.703296 670.609829 161.009511 256.780088 -2.534593 -1.686392 5.195003 7.631243 5.384562 2.115203 -4.144106 -0.000007 0.000002 70.122902 -21.515062 146.607552 0.000013 0.000003 -10.116505 -82.413937 -16.967506 -34.668941 -0.000000 0.000000 -12.937796 -300.773773 -383.771227 24.666265 2.175595 0.064495 -2.662894 -347.924454 -16.793127 4.111023 -0.000009 -0.000005 -18.585804 140.951663 -221.726368 -142.429265 -0.000010 -0.000010 -18.979509 395.756405 -6.494225 -84.486223 -2.092405 -0.058104 -2.581194 277.248006 -42.552068 -29.601408 0.000001 -0.000005 -18.665014 -967.813872 38.264338 -129.959908 -0.000005 -0.000010 -18.566607 704.221682 37.046154 -63.341146
36.004807 33.570709 42.342693 359.935205 -1.028458 -3.705967 -0.153504 1.163100 7.852403 -0.727921 2.833588 8.019180 0.000005 0.000001 3.343295 2.241353 -3.861880 0.255576 0.000003 -0.000001 7.785504 6.501293 0.009561 -8.385423 0.000006 0.000001 2.173910 1.104029 -2.424036 1.129714 2.676294 -1.652395 4.938305 -7.832947 3.077093 5.797237 4.299004 -0.000007 0.000003 -55.376793 -6.762215 -73.613641 -0.000005 0.000003 -10.245102 185.182698 250.821922 203.903413 -0.000004 -0.000003 -12.703291 670.675344 161.309998 256.705201 -2.534601 -1.686403 5.195006 7.771333 5.390197 2.105603 -4.144105 -0.000002 0.000000 69.985363 -21.375487 146.541818 0.000004 0.000002 -10.116491 -82.561305 -16.840118 -34.630326 -0.000008 -0.000002 -12.937792 -300.594003 -383.876248 24.773287 2.175591 0.064494 -2.662906 -347.808860 -16.867451 4.101000 -0.000003 -0.000002 -18.585804 140.904180 -221.958308 -142.377219 -0.000007 0.000002 -18.979509 395.633845 -6.637144 -84.607035 -2.092396 -0.058105 -2.581200 277.478839 -42.548196 -29.446178 0.000002 -0.000005 -18.665016 -968.138115 38.232390 -129.871799 0.000000 -0.000005 -18.566607 704.210153 37.045901 -63.282201
36.000404 33.548805 42.323895 359.351907 -1.013761 -3.669078 -0.153497 1.163105 7.852405 -0.150669 2.877105 8.014768 0.000007 0.000004 3.343307 2.135164 -3.876708 0.244364 -0.000005 0.000004 7.785506 6.582665 -0.011103 -8.427925 0.000002 0.000001 2.173902 1.074093 -2.450897 1.102639 2.676295 -1.652398 4.938300 -7.917307 3.094330 5.873520 4.298999 -0.000004 0.000000 -55.235347 -6.691847 -73.649902 0.000001 0.000001 -10.245105 184.709257 250.962296 203.518860 0.000004 -0.000003 -12.703297 670.803971 161.681629 256.608732 -2.534601 -1.686397 5.194998 7.924099 5.389848 2.062606 -4.144104 -0.000008 -0.000010 69.902628 -21.243027 146.526669 0.000004 0.000008 -10.116495 -82.616964 -16.720004 -34.569005 -0.000002 -0.000006 -12.937811 -300.397840 -383.939960 24.973045 2.175594 0.064490 -2.662891 -347.121033 -16.905693 4.057943 -0.000010 -0.000004 -18.585798 140.804309 -222.138393 -142.305707 -0.000010 -0.000003 -18.979511 395.552784 -6.754029 -84.676621 -2.092403 -0.058103 -2.581196 278.234286 -42.504390 -29.309011 -0.000003 -0.000006 -18.665009 -968.462139 38.106042 -129.735222 -0.000005 -0.000009 -18.566607 704.115295 36.990822 -63.385248
35.992699 33.523899 42.303997 359.191725 -1.086889 -3.615774 -0.153498 1.163111 7.852406 -0.004840 2.996426 8.015517 0.000005 0.000003 3.343305 2.060714 -3.890382 0.237812 -0.000004 0.000005 7.785507 6.642139 -0.055617 -8.483623 0.000005 0.000005 2.173903 1.061511 -2.473373 1.061128 2.676297 -1.652401 4.938307 -8.015642 3.102092 5.873463 4.299004 -0.000005 0.000000 -55.108162 -6.638097 -73.638161 -0.000000 0.000008 -10.245096 184.367337 251.087207 203.199480 -0.000006 -0.000000 -12.703289 670.851345 162.035556 256.507290 -2.534603 -1.686398 5.195003 8.043635 5.365675 1.999637 -4.144103 -0.000007 0.000006 69.832346 -21.094179 146.521204 0.000011 0.000000 -10.116497 -82.625604 -16.624209 -34.488350 -0.000004 0.000004 -12.937801 -300.237193 -383.970122 25.223436 2.175591 0.064498 -2.662894 -346.883588 -16.879668 3.981777 -0.000003 -0.000006 -18.585804 140.590087 -222.244138 -142.160470 0.000000 -0.000003 -18.979511 395.554013 -6.843600 -84.639800 -2.092394 -0.058098 -2.581200 278.476047 -42.411486 -29.189916 0.000006 -0.000008 -18.665009 -968.656335 37.964070 -129.631868 -0.000005 -0.000003 -18.566603 704.069615 36.949093 -63.435512
35.983505 33.497398 42.283695 359.021572 -1.176865 -3.560584 -0.153503 1.163105 7.852405 0.148018 3.135493 8.029897 0.000004 -0.000000 3.343294 1.805778 -3.914125 0.277620 -0.000001 -0.000002 7.785511 6.879735 -0.087092 -8.609761 -0.000009 0.000006 2.173909 1.062795 -2.475410 1.007163 2.676294 -1.652399 4.938306 -7.903568 3.129792 5.746834 4.299003 0.000001 -0.000007 -54.987439 -6.633293 -73.592201 -0.000004 0.000003 -10.245098 183.869840 251.175398 202.727623 0.000010 -0.000001 -12.703288 670.890413 162.092096 256.684438 -2.534602 -1.686396 5.195005 8.405996 5.343451 1.804726 -4.144104 -0.000003 0.000008 69.677977 -20.865760 146.553675 0.000007 -0.000003 -10.116502 -82.692165 -16.514441 -34.401064 -0.000007 -0.000008 -12.937799 -300.088022 -383.979629 25.452485 2.175589 0.064506 -2.662898 -346.700320 -16.838976 3.885587 0.000002 -0.000005 -18.585804 140.380782 -222.330321 -141.988404 -0.000012 -0.000007 -18.979515 395.598218 -6.924008 -84.577024 -2.092400 -0.058105 -2.581198 278.827556 -42.342808 -28.991540 -0.000001 -0.000003 -18.665009 -968.838619 37.942500 -129.599766 -0.000004 -0.000008 -18.566608 704.174199 36.989788 -63.282625
